<svg width="57" height="57" viewBox="0 0 57 57" fill="none" xmlns="http://www.w3.org/2000/svg">
<path d="M28.4758 12.3502C25.2811 12.3496 22.158 13.2965 19.5015 15.0712C16.845 16.8459 14.7743 19.3686 13.5513 22.3203C12.3283 25.272 12.008 28.5202 12.6308 31.654C13.2537 34.7878 14.7917 37.6665 17.0504 39.926C19.3091 42.1856 22.187 43.7245 25.3202 44.3481C28.4534 44.9718 31.7011 44.6522 34.6527 43.4297C37.6043 42.2073 40.1272 40.1369 41.9022 37.4804C43.6773 34.8239 44.6248 31.7006 44.625 28.5055C44.6207 24.2228 42.918 20.1167 39.8905 17.088C36.863 14.0594 32.7578 12.3555 28.4758 12.3502ZM54.1501 25.6543H50.3532C49.5972 25.6543 48.8722 25.9546 48.3377 26.4892C47.8032 27.0238 47.5029 27.7489 47.5029 28.505C47.5029 29.2611 47.8032 29.9861 48.3377 30.5208C48.8722 31.0554 49.5972 31.3557 50.3532 31.3557H54.1501C54.906 31.3557 55.6308 31.0554 56.1653 30.5209C56.6998 29.9864 57 29.2614 57 28.5055C57 27.7495 56.6998 27.0246 56.1653 26.49C55.6308 25.9555 54.906 25.6552 54.1501 25.6552V25.6543ZM28.4758 47.5006C27.7203 47.5016 26.9962 47.8022 26.4621 48.3365C25.928 48.8709 25.6276 49.5953 25.6269 50.3508V54.1512C25.6269 54.9067 25.927 55.6313 26.4612 56.1656C26.9953 56.6999 27.7199 57 28.4753 57C29.2308 57 29.9553 56.6999 30.4894 56.1656C31.0236 55.6313 31.3237 54.9067 31.3237 54.1512V50.3508C31.323 49.5954 31.0227 48.8712 30.4889 48.3369C29.955 47.8026 29.231 47.5018 28.4758 47.5006ZM9.49383 28.5055C9.49307 27.7501 9.19284 27.0258 8.65896 26.4915C8.12508 25.9572 7.40114 25.6565 6.64587 25.6552H2.84986C2.09403 25.6552 1.36916 25.9555 0.834704 26.49C0.300252 27.0246 0 27.7495 0 28.5055C0 29.2614 0.300252 29.9864 0.834704 30.5209C1.36916 31.0554 2.09403 31.3557 2.84986 31.3557H6.64587C7.40114 31.3545 8.12508 31.0537 8.65896 30.5194C9.19284 29.9851 9.49307 29.2608 9.49383 28.5055ZM28.4758 9.49897C29.231 9.49771 29.955 9.19695 30.4889 8.66264C31.0227 8.12833 31.323 7.40409 31.3237 6.64871V2.84836C31.3237 2.09293 31.0237 1.36844 30.4896 0.834266C29.9555 0.300094 29.2311 0 28.4758 0C27.7205 0 26.9961 0.300094 26.462 0.834266C25.9279 1.36844 25.6278 2.09293 25.6278 2.84836V6.64871C25.6286 7.40409 25.9288 8.12833 26.4627 8.66264C26.9966 9.19695 27.7205 9.49771 28.4758 9.49897ZM45.9426 15.0655L48.63 12.3768C49.1641 11.8426 49.4642 11.1181 49.4642 10.3626C49.4642 9.60713 49.1641 8.88261 48.63 8.34841C48.0959 7.81422 47.3714 7.51411 46.6161 7.51411C45.8607 7.51411 45.1363 7.81422 44.6022 8.34841L41.9138 11.0362C41.6493 11.3007 41.4395 11.6147 41.2964 11.9603C41.1533 12.3059 41.0796 12.6763 41.0796 13.0504C41.0796 13.4245 41.1533 13.7949 41.2964 14.1405C41.4395 14.4861 41.6493 14.8001 41.9138 15.0646C42.1783 15.3291 42.4922 15.5389 42.8378 15.6821C43.1833 15.8252 43.5537 15.8989 43.9277 15.8989C44.3017 15.8989 44.6721 15.8252 45.0176 15.6821C45.3632 15.5389 45.6771 15.3291 45.9416 15.0646L45.9426 15.0655ZM45.9416 41.9463C45.6771 41.6818 45.3632 41.472 45.0176 41.3289C44.6721 41.1857 44.3017 41.112 43.9277 41.112C43.5537 41.112 43.1833 41.1857 42.8378 41.3289C42.4922 41.472 42.1783 41.6818 41.9138 41.9463C41.6493 42.2109 41.4395 42.5249 41.2964 42.8705C41.1533 43.2161 41.0796 43.5865 41.0796 43.9605C41.0796 44.3346 41.1533 44.705 41.2964 45.0506C41.4395 45.3962 41.6493 45.7102 41.9138 45.9747L44.6012 48.6625C44.8657 48.927 45.1797 49.1368 45.5252 49.28C45.8708 49.4231 46.2411 49.4968 46.6151 49.4968C46.9891 49.4968 47.3595 49.4231 47.705 49.28C48.0506 49.1368 48.3645 48.927 48.629 48.6625C48.8935 48.398 49.1033 48.084 49.2464 47.7384C49.3895 47.3928 49.4632 47.0224 49.4632 46.6483C49.4632 46.2743 49.3895 45.9039 49.2464 45.5583C49.1033 45.2127 48.8935 44.8986 48.629 44.6341L45.9416 41.9463ZM11.0081 41.9454L8.32158 44.6341C8.05712 44.8986 7.84733 45.2127 7.7042 45.5583C7.56107 45.9039 7.4874 46.2743 7.4874 46.6483C7.4874 47.0224 7.56107 47.3928 7.7042 47.7384C7.84733 48.084 8.05712 48.398 8.32158 48.6625C8.8557 49.1967 9.58012 49.4968 10.3355 49.4968C10.7095 49.4968 11.0799 49.4231 11.4254 49.28C11.7709 49.1368 12.0849 48.927 12.3494 48.6625L15.0368 45.9738C15.3013 45.7093 15.5111 45.3952 15.6542 45.0496C15.7973 44.7041 15.871 44.3336 15.871 43.9596C15.871 43.5855 15.7973 43.2151 15.6542 42.8695C15.5111 42.5239 15.3013 42.2099 15.0368 41.9454C14.7723 41.6809 14.4584 41.4711 14.1128 41.3279C13.7673 41.1848 13.3969 41.1111 13.0229 41.1111C12.6489 41.1111 12.2785 41.1848 11.933 41.3279C11.5874 41.4711 11.2735 41.6809 11.009 41.9454H11.0081ZM11.009 15.0646C11.2735 15.3291 11.5874 15.5389 11.933 15.6821C12.2785 15.8252 12.6489 15.8989 13.0229 15.8989C13.3969 15.8989 13.7673 15.8252 14.1128 15.6821C14.4584 15.5389 14.7723 15.3291 15.0368 15.0646C15.3013 14.8001 15.5111 14.4861 15.6542 14.1405C15.7973 13.7949 15.871 13.4245 15.871 13.0504C15.871 12.6763 15.7973 12.3059 15.6542 11.9603C15.5111 11.6147 15.3013 11.3007 15.0368 11.0362L12.3494 8.34746C12.0849 8.08296 11.7708 7.87315 11.4252 7.73003C11.0796 7.5869 10.7092 7.51326 10.3351 7.5133C9.96109 7.51335 9.5907 7.58708 9.24513 7.73028C8.89956 7.87349 8.58558 8.08337 8.32111 8.34794C8.05664 8.61251 7.84686 8.92659 7.70376 9.27224C7.56065 9.61789 7.48702 9.98835 7.48706 10.3625C7.48711 10.7366 7.56083 11.107 7.70402 11.4526C7.8472 11.7983 8.05705 12.1123 8.32158 12.3768L11.009 15.0646Z" fill="white"/>
</svg>
