<svg width="129" height="129" viewBox="0 0 129 129" fill="none" xmlns="http://www.w3.org/2000/svg">
<path d="M41.0443 9.50483e-09C42.9032 -6.81095e-05 44.7439 0.36601 46.4613 1.07733C48.1788 1.78865 49.7393 2.83129 51.0538 4.1457L70.0114 23.1033C73.9915 27.0852 76.2272 32.4847 76.227 38.1146C76.227 38.4372 76.3091 38.7479 76.3208 39.0704L37.7019 0.445648C38.7941 0.16368 39.9163 0.0140575 41.0443 9.50483e-09ZM38.1124 76.2293C32.4824 76.2295 27.0829 73.9938 23.1011 70.0137L4.14343 51.056C2.40567 49.3535 1.14875 47.2218 0.500016 44.8771C-0.148722 42.5324 -0.166238 40.0579 0.449239 37.7042L39.0682 76.3231C38.7457 76.3114 38.4349 76.2293 38.1124 76.2293ZM56.1904 5.13082C58.1021 4.71919 60.0865 4.79335 61.9621 5.3465C63.8377 5.89966 65.5447 6.91417 66.927 8.29727L73.7994 15.1579C75.3617 16.7256 76.4472 18.7044 76.9298 20.8643C77.4125 23.0243 77.2725 25.2769 76.5261 27.3605C75.3959 25.0235 73.8949 22.8848 72.0813 21.0276L56.1904 5.13082ZM69.0028 6.21562C68.5864 5.85489 68.1499 5.51816 67.6952 5.20705L74.2275 0.85025C75.2002 0.208509 76.3645 -0.0778596 77.5239 0.0395092C78.6833 0.156878 79.7667 0.670792 80.591 1.49445C81.4154 2.31811 81.9302 3.40104 82.0486 4.56034C82.1669 5.71963 81.8815 6.88425 81.2406 7.85748L76.872 14.4132C76.5655 13.9508 76.2327 13.5064 75.8752 13.0821L69.0028 6.21562ZM27.3523 76.5283C25.2695 77.2735 23.0181 77.4129 20.8593 76.9303C18.7005 76.4477 16.7228 75.3628 15.1556 73.8017L8.295 66.9293C6.9119 65.547 5.89739 63.8399 5.34424 61.9643C4.79108 60.0887 4.71692 58.1044 5.12855 56.1927L21.0194 72.0836C22.8767 73.8972 25.0153 75.3982 27.3523 76.5283ZM0.847982 74.2297L5.20478 67.6975C5.51574 68.1522 5.85248 68.5888 6.21335 69.0051L13.0857 75.8775C13.4896 76.2475 13.9145 76.5941 14.3582 76.9154L7.86107 81.2487C6.88751 81.8956 5.72002 82.1855 4.55693 82.0692C3.39384 81.9529 2.30687 81.4375 1.48069 80.6107C0.654502 79.7838 0.140043 78.6964 0.0247058 77.5332C-0.0906315 76.37 0.200267 75.2028 0.847982 74.2297ZM87.6028 74.8689C88.716 73.7304 89.6352 72.4171 90.3236 70.9812L91.1562 72.2302C91.9077 73.3589 92.2447 74.7131 92.11 76.0624C91.9753 77.4116 91.3772 78.6725 90.4174 79.6303L79.628 90.4197C78.6695 91.3785 77.4082 91.9756 76.059 92.1092C74.7098 92.2429 73.356 91.9048 72.2279 91.1526L70.9731 90.3141C72.4116 89.6297 73.7271 88.7124 74.8666 87.5992L87.6028 74.8689ZM92.4873 81.7002C92.6515 81.536 92.7277 81.3249 92.8743 81.149L95.5365 83.8112C96.6358 84.9108 97.2533 86.402 97.2533 87.9569C97.2533 89.5117 96.6358 91.003 95.5365 92.1026L92.1003 95.5388C91.0007 96.638 89.5095 97.2556 87.9546 97.2556C86.3997 97.2556 84.9085 96.638 83.8089 95.5388L81.1409 92.8707C81.3168 92.7183 81.5396 92.6596 81.7038 92.4955L92.4873 81.7002ZM97.6064 94.1725C97.9811 93.7233 98.3073 93.2359 98.5798 92.7183L111.392 105.531C111.942 106.079 112.686 106.387 113.462 106.387H114.975C115.941 106.387 116.891 106.626 117.742 107.082C118.593 107.539 119.319 108.198 119.854 109.002L128.509 121.979C128.884 122.543 129.053 123.22 128.985 123.895C128.918 124.569 128.619 125.2 128.139 125.679L125.676 128.141C125.198 128.62 124.569 128.918 123.895 128.985C123.222 129.053 122.546 128.885 121.982 128.511L109 119.856C108.196 119.321 107.536 118.596 107.08 117.745C106.624 116.893 106.385 115.943 106.385 114.977V113.464C106.384 112.688 106.076 111.944 105.528 111.394L92.716 98.5762C93.2355 98.3061 93.7249 97.9818 94.1761 97.6087L97.6064 94.1725ZM4.14343 19.3095L19.3072 4.1457C20.4068 3.04641 21.898 2.42886 23.4529 2.42886C25.0078 2.42886 26.499 3.04641 27.5986 4.1457L31.0348 7.58188C32.1341 8.68151 32.7516 10.1727 32.7516 11.7276C32.7516 13.2825 32.1341 14.7737 31.0348 15.8733L15.871 31.0371C14.7714 32.1363 13.2802 32.7539 11.7253 32.7539C10.1704 32.7539 8.67923 32.1363 7.57961 31.0371L4.14343 27.6009C3.04414 26.5012 2.42659 25.01 2.42659 23.4552C2.42659 21.9003 3.04414 20.4091 4.14343 19.3095ZM24.4908 18.6293C24.6273 18.4931 24.7356 18.3313 24.8095 18.1532C24.8834 17.9751 24.9215 17.7842 24.9215 17.5914C24.9215 17.3986 24.8834 17.2076 24.8095 17.0295C24.7356 16.8514 24.6273 16.6897 24.4908 16.5535L18.627 10.6897C18.4907 10.5534 18.3289 10.4453 18.1508 10.3715C17.9727 10.2977 17.7819 10.2598 17.5891 10.2598C17.3964 10.2598 17.2055 10.2977 17.0274 10.3715C16.8493 10.4453 16.6875 10.5534 16.5512 10.6897C16.4149 10.826 16.3068 10.9878 16.233 11.1659C16.1593 11.344 16.1213 11.5348 16.1213 11.7276C16.1213 11.9203 16.1593 12.1112 16.233 12.2893C16.3068 12.4674 16.4149 12.6292 16.5512 12.7655L22.415 18.6293C22.5512 18.7658 22.7129 18.8741 22.891 18.948C23.0691 19.0219 23.2601 19.0599 23.4529 19.0599C23.6457 19.0599 23.8367 19.0219 24.0148 18.948C24.1928 18.8741 24.3546 18.7658 24.4908 18.6293ZM10.6933 18.6293L16.5571 24.4931C16.8339 24.7597 17.2044 24.907 17.5888 24.9031C17.9732 24.8992 18.3407 24.7445 18.6121 24.4724C18.8835 24.2002 19.0372 23.8322 19.04 23.4479C19.0428 23.0635 18.8944 22.6934 18.627 22.4173L12.7632 16.5535C12.4864 16.2868 12.1158 16.1396 11.7315 16.1434C11.3471 16.1473 10.9796 16.302 10.7082 16.5742C10.4368 16.8464 10.2831 17.2143 10.2803 17.5987C10.2775 17.9831 10.4258 18.3532 10.6933 18.6293Z" fill="white"/>
<path d="M5.50972 33.1069C7.16043 34.7512 9.39542 35.6744 11.7253 35.6744C14.0553 35.6744 16.2902 34.7512 17.941 33.1069L33.1047 17.9432C34.7504 16.2932 35.6746 14.0579 35.6746 11.7276C35.6746 9.39716 34.7504 7.16189 33.1047 5.51194L31.4218 3.82316C32.4027 2.9287 33.5016 2.17305 34.6879 1.57733L50.6961 17.5913L17.5891 50.6983L1.58098 34.6902C2.17488 33.5042 2.92855 32.4053 3.82095 31.424L5.50972 33.1069ZM52.7719 19.6671L77.1887 44.0781C78.155 47.4893 79.9637 50.6027 82.4485 53.1318L85.527 56.2103C87.7256 58.4095 88.9607 61.3919 88.9607 64.5017C88.9607 67.6114 87.7256 70.5938 85.527 72.7931L72.7909 85.5292C70.5916 87.7278 67.6092 88.9629 64.4995 88.9629C61.3897 88.9629 58.4073 87.7278 56.2081 85.5292L53.1296 82.4507C50.6005 79.966 47.4871 78.1572 44.0759 77.1909L19.6591 52.7741L52.7719 19.6671ZM71.3953 53.812C71.5318 53.6758 71.6401 53.514 71.714 53.3359C71.7879 53.1578 71.826 52.9669 71.826 52.7741C71.826 52.5813 71.7879 52.3903 71.714 52.2123C71.6401 52.0342 71.5318 51.8724 71.3953 51.7362L59.6677 40.0086C59.5323 39.8688 59.3704 39.7574 59.1914 39.6808C59.0124 39.6042 58.82 39.5641 58.6254 39.5627C58.4307 39.5613 58.2378 39.5986 58.0577 39.6726C57.8777 39.7466 57.7142 39.8556 57.5767 39.9935C57.4393 40.1313 57.3307 40.2951 57.2572 40.4754C57.1837 40.6556 57.1469 40.8487 57.1489 41.0434C57.1508 41.238 57.1915 41.4303 57.2686 41.609C57.3457 41.7878 57.4576 41.9494 57.5978 42.0844L69.3254 53.812C69.6001 54.0859 69.9723 54.2397 70.3603 54.2397C70.7483 54.2397 71.1205 54.0859 71.3953 53.812ZM65.5315 59.6758C65.668 59.5396 65.7763 59.3778 65.8502 59.1997C65.9241 59.0216 65.9622 58.8307 65.9622 58.6379C65.9622 58.4451 65.9241 58.2541 65.8502 58.076C65.7763 57.8979 65.668 57.7362 65.5315 57.6L53.8039 45.8724C53.527 45.6057 53.1565 45.4585 52.7722 45.4624C52.3878 45.4662 52.0203 45.6209 51.7489 45.8931C51.4775 46.1653 51.3238 46.5332 51.321 46.9176C51.3182 47.302 51.4665 47.6721 51.734 47.9482L63.4616 59.6758C63.5977 59.8123 63.7595 59.9206 63.9376 59.9945C64.1157 60.0684 64.3066 60.1065 64.4995 60.1065C64.6923 60.1065 64.8832 60.0684 65.0613 59.9945C65.2394 59.9206 65.4012 59.8123 65.5374 59.6758H65.5315ZM57.5978 65.5396C57.7341 65.6759 57.8959 65.784 58.074 65.8578C58.252 65.9315 58.4429 65.9695 58.6357 65.9695C58.8284 65.9695 59.0193 65.9315 59.1974 65.8578C59.3755 65.784 59.5373 65.6759 59.6736 65.5396C59.8099 65.4033 59.918 65.2415 59.9917 65.0634C60.0655 64.8853 60.1035 64.6944 60.1035 64.5017C60.1035 64.3089 60.0655 64.1181 59.9917 63.94C59.918 63.7619 59.8099 63.6001 59.6736 63.4638L47.946 51.7362C47.6707 51.4609 47.2974 51.3063 46.9081 51.3063C46.5188 51.3063 46.1455 51.4609 45.8702 51.7362C45.5949 52.0115 45.4403 52.3848 45.4403 52.7741C45.4403 53.1634 45.5949 53.5367 45.8702 53.812L57.5978 65.5396ZM51.734 71.4034C52.0093 71.6786 52.3826 71.8333 52.7719 71.8333C53.1612 71.8333 53.5345 71.6786 53.8098 71.4034C54.085 71.1281 54.2397 70.7548 54.2397 70.3655C54.2397 69.9762 54.085 69.6028 53.8098 69.3276L42.0822 57.6C41.9459 57.4637 41.7841 57.3556 41.606 57.2818C41.4279 57.2081 41.237 57.1701 41.0443 57.1701C40.8515 57.1701 40.6607 57.2081 40.4826 57.2818C40.3045 57.3556 40.1427 57.4637 40.0064 57.6C39.8701 57.7363 39.762 57.8981 39.6882 58.0762C39.6145 58.2543 39.5765 58.4451 39.5765 58.6379C39.5765 58.8306 39.6145 59.0215 39.6882 59.1996C39.762 59.3777 39.8701 59.5395 40.0064 59.6758L51.734 71.4034Z" fill="white"/>
</svg>
